<svg viewBox="0 0 1200 630" xmlns="http://www.w3.org/2000/svg" width="1200" height="630">
  <defs>
    <radialGradient id="bg" cx="50%" cy="50%" r="70%">
      <stop offset="0%" stop-color="#1a2a1a"/>
      <stop offset="100%" stop-color="#0a0f0a"/>
    </radialGradient>
    <filter id="glow">
      <feGaussianBlur stdDeviation="3" result="blur"/>
      <feMerge><feMergeNode in="blur"/><feMergeNode in="SourceGraphic"/></feMerge>
    </filter>
  </defs>

  <rect width="1200" height="630" fill="url(#bg)"/>
  <polygon points="0,0 60,0 0,60" fill="#c8930a" opacity="0.15"/>
  <polygon points="1200,0 1140,0 1200,60" fill="#c8930a" opacity="0.15"/>
  <polygon points="0,630 60,630 0,570" fill="#c8930a" opacity="0.15"/>
  <polygon points="1200,630 1140,630 1200,570" fill="#c8930a" opacity="0.15"/>
  <rect x="16" y="16" width="1168" height="598" fill="none" stroke="#c8930a" stroke-width="2" rx="12" opacity="0.6"/>
  <rect x="22" y="22" width="1156" height="586" fill="none" stroke="#c8930a" stroke-width="0.5" rx="10" opacity="0.3"/>

  <!-- Left fan -->
  <g transform="translate(142, 315) rotate(-22)"><rect x="-42" y="-62" width="84" height="124" rx="8" fill="#1e3a5f" stroke="#4a7abf" stroke-width="1.5"/><rect x="-34" y="-54" width="68" height="108" rx="5" fill="none" stroke="#4a7abf" stroke-width="0.8" opacity="0.6"/></g>
  <g transform="translate(152, 310) rotate(-14)"><rect x="-42" y="-62" width="84" height="124" rx="8" fill="#1e3a5f" stroke="#4a7abf" stroke-width="1.5"/><rect x="-34" y="-54" width="68" height="108" rx="5" fill="none" stroke="#4a7abf" stroke-width="0.8" opacity="0.6"/></g>
  <g transform="translate(158, 308) rotate(-6)"><rect x="-42" y="-62" width="84" height="124" rx="8" fill="#1e3a5f" stroke="#4a7abf" stroke-width="1.5"/><rect x="-34" y="-54" width="68" height="108" rx="5" fill="none" stroke="#4a7abf" stroke-width="0.8" opacity="0.6"/></g>
  <g transform="translate(162, 308) rotate(4)"><rect x="-42" y="-62" width="84" height="124" rx="8" fill="#1e3a5f" stroke="#4a7abf" stroke-width="1.5"/><rect x="-34" y="-54" width="68" height="108" rx="5" fill="none" stroke="#4a7abf" stroke-width="0.8" opacity="0.6"/></g>
  <g transform="translate(168, 310) rotate(12)">
    <rect x="-42" y="-62" width="84" height="124" rx="8" fill="#fff" stroke="#ddd" stroke-width="1"/>
    <text x="-34" y="-46" font-family="serif" font-size="18" fill="#111" font-weight="bold">A</text>
    <text x="-34" y="-30" font-family="serif" font-size="14" fill="#111">&#9824;</text>
    <text x="0" y="8" font-family="serif" font-size="38" fill="#111" text-anchor="middle">&#9824;</text>
  </g>

  <!-- Right fan -->
  <g transform="translate(1058, 315) rotate(22)"><rect x="-42" y="-62" width="84" height="124" rx="8" fill="#1e3a5f" stroke="#4a7abf" stroke-width="1.5"/><rect x="-34" y="-54" width="68" height="108" rx="5" fill="none" stroke="#4a7abf" stroke-width="0.8" opacity="0.6"/></g>
  <g transform="translate(1048, 310) rotate(14)"><rect x="-42" y="-62" width="84" height="124" rx="8" fill="#1e3a5f" stroke="#4a7abf" stroke-width="1.5"/><rect x="-34" y="-54" width="68" height="108" rx="5" fill="none" stroke="#4a7abf" stroke-width="0.8" opacity="0.6"/></g>
  <g transform="translate(1042, 308) rotate(6)"><rect x="-42" y="-62" width="84" height="124" rx="8" fill="#1e3a5f" stroke="#4a7abf" stroke-width="1.5"/><rect x="-34" y="-54" width="68" height="108" rx="5" fill="none" stroke="#4a7abf" stroke-width="0.8" opacity="0.6"/></g>
  <g transform="translate(1038, 308) rotate(-4)"><rect x="-42" y="-62" width="84" height="124" rx="8" fill="#1e3a5f" stroke="#4a7abf" stroke-width="1.5"/><rect x="-34" y="-54" width="68" height="108" rx="5" fill="none" stroke="#4a7abf" stroke-width="0.8" opacity="0.6"/></g>
  <g transform="translate(1032, 310) rotate(-12)">
    <rect x="-42" y="-62" width="84" height="124" rx="8" fill="#fff" stroke="#ddd" stroke-width="1"/>
    <text x="-34" y="-46" font-family="serif" font-size="18" fill="#c00" font-weight="bold">K</text>
    <text x="-34" y="-30" font-family="serif" font-size="14" fill="#c00">&#9829;</text>
    <text x="0" y="8" font-family="serif" font-size="36" fill="#c00" text-anchor="middle">&#9829;</text>
  </g>

  <text x="600" y="210" font-family="Georgia, serif" font-size="112" fill="#f5c842" text-anchor="middle" filter="url(#glow)" letter-spacing="-2">Last Round</text>
  <text x="600" y="310" font-family="serif" font-size="80" text-anchor="middle">&#127866;</text>
  <text x="600" y="380" font-family="Georgia, serif" font-size="32" fill="#e8d080" text-anchor="middle" letter-spacing="4" opacity="0.9">THE PUB CARD GAME</text>
  <line x1="380" y1="402" x2="820" y2="402" stroke="#c8930a" stroke-width="1" opacity="0.5"/>
  <text x="600" y="448" font-family="Georgia, serif" font-size="26" fill="#b0b8a0" text-anchor="middle" opacity="0.85">Last one holding cards buys the round!</text>
  <rect x="16" y="530" width="1168" height="84" fill="#c8930a" opacity="0.12"/>
  <rect x="16" y="530" width="1168" height="1" fill="#c8930a" opacity="0.4"/>
  <text x="600" y="583" font-family="Georgia, serif" font-size="22" fill="#e8c840" text-anchor="middle" letter-spacing="1" opacity="0.9">last-round-card-game.web.app  &#183;  Free &#183; No download &#183; 2&#8211;6 players</text>
  <text x="50" y="590" font-family="serif" font-size="28" fill="#c8930a" opacity="0.5" text-anchor="middle">&#9824; &#9829;</text>
  <text x="1150" y="590" font-family="serif" font-size="28" fill="#c8930a" opacity="0.5" text-anchor="middle">&#9830; &#9827;</text>
</svg>
